# xmcd
#
# Track frame offsets: 
#        150
#        15312
#        31413
#        47049
#        61393
#        74516
#        87273
#        102936
#        117333
#        132381
#        147342
#        161478
#        177213
#        192238
#        206683
#        220212
#        235669
#        250537
#
# Disc length: 3540 seconds
#
# Revision: 2
# Processed by: cddbd v1.5.2PL0 Copyright (c) Steve Scherf et al.
# Submitted via: ExactAudioCopy v1.0b1
#
DISCID=fc0dd212
DTITLE=Glenn Miller - Original recordings
DYEAR=2005
DGENRE=Jazz
TTITLE0=Moonlight Serenade
TTITLE1=In The Mood
TTITLE2=Tuxedo Junction
TTITLE3=Slow Freight
TTITLE4=Bugle Call Rag
TTITLE5=Blueberry Hill
TTITLE6=Chattanooga Choo Choo
TTITLE7=Elmer's Tune
TTITLE8=Moonlight Cocktail
TTITLE9=Kalamazoo
TTITLE10=My Reverie
TTITLE11=King Porter Stomp
TTITLE12=Indian Summer
TTITLE13=My Blue Heaven
TTITLE14=Gleen Island Special
TTITLE15=Take The A-Train
TTITLE16=A String Of Pearls
TTITLE17=American Patrol
EXTD=YEAR: 2005
EXTT0=
EXTT1=
EXTT2=
EXTT3=
EXTT4=
EXTT5=
EXTT6=
EXTT7=
EXTT8=
EXTT9=
EXTT10=
EXTT11=
EXTT12=
EXTT13=
EXTT14=
EXTT15=
EXTT16=
EXTT17=
PLAYORDER=
